<svg width="100" height="32" fill="none" xmlns="http://www.w3.org/2000/svg"><rect opacity=".2" x="1" y="1" width="98" height="30" rx="15" stroke="#AAA" stroke-width="2"/><path d="m32.979 21 .934-2.695h3.978L38.82 21h1.63l-3.664-10.182h-1.775L31.348 21h1.63Zm1.382-3.987 1.501-4.345h.08l1.501 4.345h-3.082ZM41.802 21h1.486v-3.053h.965L46.555 21h1.844l-2.993-3.923 2.959-3.713h-1.84l-2.52 3.201h-.717v-3.201h-1.486V21Zm7.752 0h1.486v-3.053h.965L54.307 21h1.844l-2.993-3.923 2.959-3.713h-1.84l-2.52 3.201h-.716v-3.201h-1.487V21Zm9.974.169c1.263 0 1.974-.641 2.257-1.213h.06V21h1.452v-5.071c0-2.222-1.75-2.665-2.963-2.665-1.383 0-2.655.557-3.152 1.95l1.397.317c.218-.542.775-1.064 1.774-1.064.96 0 1.452.502 1.452 1.367v.035c0 .542-.557.532-1.929.691-1.447.17-2.928.547-2.928 2.282 0 1.502 1.129 2.327 2.58 2.327Zm.323-1.193c-.84 0-1.446-.378-1.446-1.114 0-.795.706-1.079 1.566-1.193.482-.065 1.625-.194 1.84-.408v.985c0 .905-.722 1.73-1.96 1.73Zm6.092 3.888c1.228 0 2.003-.642 2.446-1.845l3.157-8.64-1.606-.015-1.934 5.926h-.08l-1.933-5.926h-1.591l2.794 7.735-.184.508c-.378 1.014-.91 1.098-1.725.875l-.358 1.218c.179.08.566.164 1.014.164Zm8.46-10.5h-1.456V21h1.456v-3.172h3.306V21h1.452v-7.636h-1.452v3.177h-3.306v-3.177Zm5.8 1.282h2.5V21h1.452v-6.354h2.49v-1.282h-6.442v1.282Z" fill="#fff"/><path fill-rule="evenodd" clip-rule="evenodd" d="M20 13a2 2 0 1 1-4 0 2 2 0 0 1 4 0Zm2 0a4 4 0 1 1-8 0 4 4 0 0 1 8 0Zm-6 5a4 4 0 0 0-4 4v1h2v-1a2 2 0 0 1 2-2h4a2 2 0 0 1 2 2v1h2v-1a4 4 0 0 0-4-4h-4Z" fill="#fff"/></svg>